<?xml version="1.0" encoding="UTF-8"?>
<svg id="Layer_2" data-name="Layer 2" xmlns="http://www.w3.org/2000/svg" viewBox="0 0 190.25 190.25">
  <defs>
    <style>
      .cls-1 {
        fill: #f15a24;
      }

      .cls-2 {
        fill: #fff;
      }
    </style>
  </defs>
  <g id="Layer_2-2" data-name="Layer 2">
    <g id="Layer_2-2" data-name="Layer 2-2">
      <rect class="cls-1" width="190.25" height="190.25" rx="15.05" ry="15.05"/>
    </g>
    <g id="Layer_1-2" data-name="Layer 1-2">
      <path class="cls-2" d="M76.6,93.29c6.05,13.29,15.87,25.01,19.87,39.19,1.52,5.38,3.07,15.12-3.6,17.87-4.91,2.02-10.11-4.83-12.88-7.98-4.02-4.58-7.79-9.95-9.92-15.65-.72-1.93-1.66-4.46-1.27-6.56.13-.71.65-1.3.79-1.93-.08.39,1.68-2.35-.39-.54-.45.39-.72,2.32-1.21,2.99-5.09,6.93-12.76,9.01-19.99,3.87-4.85-3.44-14.64-12.61-9.3-18.57,4.78-5.32,13.03-7.46,19.81-8.86,7.3-1.5,14.86-2.01,22.31-1.45,6.28.47,6.25-9.12,0-9.59-10.19-.76-20.91.36-30.71,3.22-8.75,2.56-20.69,7.74-22.65,17.58-2.11,10.55,8.84,22.34,17.51,27.13,11.24,6.21,22.59,2.47,30.38-7.02,3.14-3.83,5.07-9.46,2.41-14.08-2.48-4.31-8.32-5.51-12.64-3.24-7.88,4.13-6.67,14.29-3.89,21.09,5.4,13.19,24.37,40.54,40.83,24.89,9.03-8.59,5.24-23.59,1.01-33.47-5.02-11.75-12.74-22.12-18.03-33.73-2.56-5.62-10.99-.75-8.45,4.84h.02Z"/>
      <path class="cls-2" d="M86.36,87.66c11.14,3.09,21.54,8.31,32.63,11.56,10.17,2.98,22.34,4.94,32.08-.47s10.75-17.28,3.4-24.66c-6.25-6.27-14.86-10.78-23.11-13.89-7.37-2.78-17.76-5.11-24.2.89-8.57,8,.91,20.13,11.32,15.14,8.99-4.31,14.91-16.91,11.92-26.24-3.35-10.44-15.8-20.06-26.76-21.58-13.13-1.82-19.33,11.27-21.41,21.86-2.18,11.14-1.83,22.97.69,34.03,1.37,6.02,10.81,3.47,9.43-2.55-2.7-11.88-3.48-27.46,2.43-38.56,1.32-2.47,3-5.22,6.12-5.43,4.27-.28,8.76,3.02,12.02,5.35s6.18,4.97,7.73,8.7c1.72,4.16.33,7.26-1.95,10.84-.8,1.26-1.61,2.57-2.72,3.59-.41.38-2.69,2.16-2.4,2.08,1.71-.45,2.57-1.42,4.77-1.38,5.87.12,11.89,2.85,16.96,5.52,4.47,2.35,10.31,5.35,13.3,9.54,4.98,6.98-6.38,10.39-11.41,10.52-16.88.44-32.47-9.74-48.28-14.13-6.07-1.68-8.65,7.56-2.6,9.24h0l.04.03Z"/>
    </g>
  </g>
</svg>